#N canvas 955 57 743 491 12;
#X text 437 168 load a TorchScript model;
#X msg 151 219 method forward;
#X msg 171 265 device mps;
#X text 258 265 set the device (default: cpu);
#X text 265 220 set a method registered in the model load (default: forward);
#X text 132 338 flags: name of the method registered in the loaded model \; device \; verbosity;
#X obj 137 311 torch.ts -m forward -d cpu -v;
#X msg 138 169 load resources/ts/caenn_mfcc.ts;
#X connect 1 0 6 0;
#X connect 2 0 6 0;
#X connect 7 0 6 0;
