#N canvas 100 -983 1512 916 12;
#X obj 168 233 osc~;
#X floatatom 168 211 8 0 0 0 - - - 12;
#X text 166 167 test signal;
#N canvas 1023 184 295 261 6th_bin 0;
#X obj 73 69 samplerate~;
#X obj 73 43 bng 20 250 50 0 empty empty empty 0 -10 0 12 #fcfcfc #000000 #000000;
#X floatatom 73 94 5 0 0 0 - - - 0;
#X obj 73 143 /;
#X floatatom 73 168 5 0 0 0 - - - 0;
#X obj 20 195 *;
#X obj 20 218 outlet;
#X msg 73 118 \$1 1024;
#X floatatom 20 91 5 0 0 0 - - - 0;
#X obj 20 18 loadbang;
#X msg 20 67 6;
#X msg 164 183 1;
#X obj 20 44 t b b b;
#X obj 164 207 outlet;
#X connect 0 0 2 0;
#X connect 1 0 0 0;
#X connect 2 0 7 0;
#X connect 3 0 4 0;
#X connect 4 0 5 1;
#X connect 5 0 6 0;
#X connect 7 0 3 0;
#X connect 8 0 5 0;
#X connect 9 0 12 0;
#X connect 10 0 8 0;
#X connect 11 0 13 0;
#X connect 12 0 10 0;
#X connect 12 1 1 0;
#X connect 12 2 11 0;
#X restore 168 188 pd 6th_bin;
#X f 13;
#X obj 86 520 vu 19 120 empty empty -1 -10 0 12 #404040 #000000 1 0;
#N canvas 733 172 450 300 dB 0;
#X obj 593 500 env~;
#X floatatom 593 525 5 0 0 0 - - - 0;
#X obj 593 548 - 100;
#X floatatom 593 572 5 0 0 0 - - - 0;
#X obj 595 456 inlet~;
#X obj 593 597 outlet;
#X connect 0 0 1 0;
#X connect 1 0 2 0;
#X connect 2 0 3 0;
#X connect 3 0 5 0;
#X connect 4 0 0 0;
#X restore 75 493 pd dB;
#X f 7;
#X floatatom 84 648 5 0 0 0 - - - 12;
#X text 727 359 -window: sets window and normalizes (phase 1) by window;
#X text 730 455 -norm: can be used to explicitly require a normalization type (or none);
#X text 728 377 -winsize: size of n_fft and window;
#X text 730 394 -overlaps or -o: sets hopsize to n_fft/overlaps (also normalizes by overlap - phase 2);
#X text 730 425 -hop_size: sets hopsize directly (also normalizes by overlap - phase 2);
#X obj 168 255 *~, f 13;
#X floatatom 256 212 5 0 0 0 - - - 0;
#X obj 185 278 r \$0_toobj;
#X text 229 211 Hz;
#X text 296 211 amp;
#X msg 598 758 unit complex;
#X msg 598 782 unit magphase;
#X msg 598 806 unit powerphase;
#X msg 598 830 unit dbphase;
#X msg 504 738 norm mag;
#X msg 504 762 norm n_fft;
#X obj 578 857 s \$0_toobj;
#X obj 480 857 s \$0_toobj;
#X msg 504 786 norm pow;
#X msg 504 714 norm none;
#X msg 504 830 norm psd;
#X text 718 757 out1: real / out2: imag;
#X text 718 781 out1: mag / out2:phase;
#X text 718 805 out1: power (linear) / out2: phase;
#X text 718 829 out1: power (dB) / out2: phase;
#X msg 504 808 norm powpeak;
#X obj 118 256 noise~;
#X msg 505 685 norm mag2;
#X obj 178 429 specview 13 1;
#X obj 601 403 r \$0_toobj;
#X obj 604 643 loadbang;
#X obj 178 337 torch.mfcc~ -n_mels 40 -n_mfcc 13 -n_fft 2048 -hop 512, f 71;
#X connect 0 0 12 0;
#X connect 1 0 0 0;
#X connect 3 0 1 0;
#X connect 3 1 13 0;
#X connect 5 0 4 0;
#X connect 5 0 6 0;
#X connect 12 0 5 0;
#X connect 12 0 38 0;
#X connect 13 0 12 1;
#X connect 14 0 38 0;
#X connect 17 0 23 0;
#X connect 18 0 23 0;
#X connect 19 0 23 0;
#X connect 20 0 23 0;
#X connect 21 0 24 0;
#X connect 22 0 24 0;
#X connect 25 0 24 0;
#X connect 26 0 21 0;
#X connect 27 0 24 0;
#X connect 32 0 24 0;
#X connect 33 0 5 0;
#X connect 33 0 38 0;
#X connect 34 0 24 0;
#X connect 36 0 35 1;
#X connect 37 0 34 0;
#X connect 37 0 18 0;
#X connect 38 0 35 0;
