#N canvas 1076 60 1266 806 12;
#X text 282 252 set the reshape method and parameters;
#X obj 38 400 route tensor shape;
#X obj 38 463 print tensor;
#X obj 99 427 print shape;
#X text 292 296 set the input shape for reference;
#X msg 163 295 input_shape 2 3 4;
#X msg 37 182 0 1 2 3 4 5 6 7 8 9 10 11 12 13 14 15 16 17 18 19 20 21 22 23, f 25;
#X text 383 120 flatten: flatten the tensor dimensions (start_dim \, end_dim);
#X text 386 140 permute: swaps the tensor dimensions (list of new dimension position);
#X text 383 176 transpose: change the position of two dimensions (dim0 \, dim1);
#X msg 133 254 method transpose 0 2;
#X text 381 32 reshape/view: changes the dimensions (new shape);
#X text 382 57 unsqueeze: adds a dimension of size 1 in a specific position (position);
#X text 383 96 squeeze: removes a dimension with size 1 (position);
#X obj 565 319 route tensor shape;
#X obj 565 382 print tensor;
#X obj 626 346 print shape;
#X msg 565 225 0 1 2 3 4 5 6 7 8 9 10 11 12 13 14 15 16 17, f 18;
#X obj 423 525 route tensor shape;
#X obj 423 588 print tensor;
#X obj 484 552 print shape;
#X msg 423 443 0 1 2 3 4 5 6 7 8 9 10 11 12 13 14 15 16 17, f 18;
#X obj 423 497 torch.reshape @permute @inshape 3 2 3 @dims 2 0 1 @mout @v;
#X text 631 548 creation arguments and flags: input shape \, reshape mode (rehsap/view \, unsqueeze \, squeeze \, flatten \, permute \, transpose) \, new shape (for reshape/view) \, dim1 (for squeenze/unsqueeze) \, start_dim end_dim (for flatten) \, dim1 \, dim2 (for transpose) \, multidimension output mode (return the output tensor keeping the format) \, verbosity (for logs and debugs);
#X obj 38 359 torch.reshape -inshape 2 3 4 -view -shape 2 3 2 2 -d cpu -mout -v;
#X obj 565 278 torch.reshape -unsqueeze -inshape 2 3 3 -dim 2 -d cpu -mout -v;
#X connect 1 0 2 0;
#X connect 1 1 3 0;
#X connect 5 0 24 0;
#X connect 6 0 24 0;
#X connect 10 0 24 0;
#X connect 14 0 15 0;
#X connect 14 1 16 0;
#X connect 17 0 25 0;
#X connect 18 0 19 0;
#X connect 18 1 20 0;
#X connect 21 0 22 0;
#X connect 22 0 18 0;
#X connect 24 0 1 0;
#X connect 25 0 14 0;
