#N canvas 838 25 803 785 12;
#X msg 170 507 bias \$1;
#X obj 170 482 tgl 19 0 empty empty empty 0 -10 0 12 #fcfcfc #000000 #000000 0 1;
#X msg 150 454 size 64 32;
#X msg 125 423 1 2 3 4 5 6 7 8;
#X obj 1 31 cnv 3 800 3 empty empty description 12 12 0 14 #7c7c7c #404040 0;
#X obj 1 90 cnv 3 800 3 empty empty inlets 8 12 0 13 #dcdcdc #000000 0;
#X obj 83 96 cnv 18 3 17 empty empty 0 5 9 0 14 #dcdcdc #9c9c9c 0;
#X obj 1 226 cnv 3 800 3 empty empty outlets 8 12 0 13 #dcdcdc #000000 0;
#X obj 83 240 cnv 18 3 17 empty empty 0 5 9 0 14 #dcdcdc #9c9c9c 0;
#X obj 0 406 cnv 3 800 3 empty empty example 8 12 0 13 #dcdcdc #000000 0;
#X obj 0 3 cnv 3 800 3 empty empty torch.linear 14 14 1 22 #7c7c7c #404040 0;
#X text 740 12 v.0.1.0;
#X text 661 70 tested on pd-0.56-1;
#X text 105 240 list:;
#X obj 1 269 cnv 3 800 3 empty empty arguments 8 12 0 13 #dcdcdc #000000 0;
#X obj 0 357 cnv 3 800 3 empty empty flags 8 12 0 13 #dcdcdc #000000 0;
#X text 100 383 -verbose: enable verbose logging printings;
#N canvas 294 25 1183 557 (subpatch) 0;
#X obj 385 43 pdcontrol;
#X obj 13 8 inlet;
#X msg 14 40 browse https://github.com/ecrisufmg/contorchionist;
#X connect 1 0 2 0;
#X connect 2 0 0 0;
#X coords 0 -1 1 1 4 2 2 1 1;
#X restore 695 58 pd;
#X msg 695 42 conTorchinist;
#X text 64 58 applies a fully connected layer to the incoming data: y = xAᵀ + b, f 65;
#X text 111 99 incoming data: [list];
#X text 280 98 float list of incoming data;
#X text 113 119 size: [list];
#X text 114 139 bias: [integer];
#X text 114 161 add: [symbol];
#X text 281 158 adds an instance of torch.linear to a named torch.sequential module, f 67;
#X text 282 179 removes an instance of torch.linear from a named torch.sequential module, f 72;
#X text 112 202 device: [symbol];
#X text 281 139 enables learnable bias vector: 0=false \, 1=true;
#X text 281 119 input and output features size;
#X text 147 240 output features;
#X text 100 363 -b: enables learnable bias vector (default=false);
#X text 283 201 sets the device: cpu \, cuda or mps;
#X text 101 335 -d: sets the device: cpu \, cuda or mps (default=cpu);
#X text 100 276 -in_feat: size of input features (default=8);
#X text 100 296 -out_feat: size of output features (default=4);
#X text 101 315 -batch: batch size (default=1);
#X text 251 665 set the device;
#X text 229 506 enables learnable bias vector;
#X obj 125 730 print out_features;
#X text 230 454 set size of the linear layer (input and output features;
#X obj 125 705 torch.linear -in 8 -out 4 -batch 1 -b -d cpu -v;
#X msg 173 666 device mps;
#X text 246 422 incoming data;
#X text 111 180 remove: [message];
#X msg 184 609 remove;
#X obj 528 554 torch.sequential module-1;
#X msg 179 553 add module-1;
#X text 239 601 removes this instance of torch.linear from torch.sequential container module-1, f 34;
#X text 276 543 adds this instance of torch.linear to torch.sequential container module-1, f 32;
#X connect 0 0 41 0;
#X connect 1 0 0 0;
#X connect 2 0 41 0;
#X connect 3 0 41 0;
#X connect 18 0 17 0;
#X connect 41 0 39 0;
#X connect 42 0 41 0;
#X connect 45 0 41 0;
#X connect 47 0 41 0;
