#N canvas 58 53 1454 901 12;
#X obj 181 343 osc~;
#X floatatom 181 321 8 0 0 0 - - - 12;
#X text 179 277 test signal;
#N canvas 733 172 295 261 6th_bin 0;
#X obj 73 69 samplerate~;
#X obj 73 43 bng 20 250 50 0 empty empty empty 0 -10 0 12 #fcfcfc #000000 #000000;
#X floatatom 73 94 5 0 0 0 - - - 0;
#X obj 73 143 /;
#X floatatom 73 168 5 0 0 0 - - - 0;
#X obj 20 195 *;
#X obj 20 218 outlet;
#X msg 73 118 \$1 1024;
#X floatatom 20 91 5 0 0 0 - - - 0;
#X obj 20 18 loadbang;
#X msg 20 67 6;
#X msg 164 183 1;
#X obj 20 44 t b b b;
#X obj 164 207 outlet;
#X connect 0 0 2 0;
#X connect 1 0 0 0;
#X connect 2 0 7 0;
#X connect 3 0 4 0;
#X connect 4 0 5 1;
#X connect 5 0 6 0;
#X connect 7 0 3 0;
#X connect 8 0 5 0;
#X connect 9 0 12 0;
#X connect 10 0 8 0;
#X connect 11 0 13 0;
#X connect 12 0 10 0;
#X connect 12 1 1 0;
#X connect 12 2 11 0;
#X restore 181 298 pd 6th_bin;
#X f 13;
#X obj 86 520 vu 19 120 empty empty -1 -10 0 12 #404040 #000000 1 0;
#N canvas 733 172 450 300 dB 0;
#X obj 593 500 env~;
#X floatatom 593 525 5 0 0 0 - - - 0;
#X obj 593 548 - 100;
#X floatatom 593 572 5 0 0 0 - - - 0;
#X obj 595 456 inlet~;
#X obj 593 597 outlet;
#X connect 0 0 1 0;
#X connect 1 0 2 0;
#X connect 2 0 3 0;
#X connect 3 0 5 0;
#X connect 4 0 0 0;
#X restore 75 493 pd dB;
#X f 7;
#X floatatom 84 648 5 0 0 0 - - - 12;
#X text 718 319 -window: sets window and normalizes (phase 1) by window;
#X text 720 415 -norm: RFFT normalization type (e.g. n_fft \, power \, none).;
#X text 718 337 -win_length or -W: window length (defaults to n_fft).;
#X text 720 354 -hop or -H: hop size in samples.;
#X text 720 385 -melcalc or -mc: mel formula (slaney \, htk \, calc2 - default).;
#X obj 181 365 *~, f 13;
#X floatatom 269 322 5 0 0 0 - - - 0;
#X obj 198 388 r \$0_toobj;
#X text 718 292 -n_fft or -N: FFT size.;
#X text 717 443 -filterbank_norm or -fb_norm: mel filterbank normalization (slaney \, htk \, none).;
#X text 717 481 -melmode or -mm: mel spectrogram normalization (energy \, magnitude_sum \, none).;
#X text 717 519 -n_mels or -M: number of mel bands.;
#X text 717 547 -fmin_mel: minimum frequency for mel bands.;
#X text 717 575 -fmax_mel: maximum frequency for mel bands (0 or -1 for sr/2).;
#X text 717 613 -unit or -u: output unit (magphase \, powerphase \, dbphase \, complex).;
#X text 717 651 -device or -dev: computation device (cpu \, cuda).;
#X text 717 679 -verbose or -v: enable verbose logging.;
#X text 242 321 Hz;
#X text 309 321 amp;
#X msg 661 758 unit complex;
#X msg 661 782 unit magphase;
#X msg 661 806 unit powerphase;
#X msg 661 830 unit dbphase;
#X msg 504 738 norm n_fft;
#X msg 504 762 norm power;
#X obj 621 857 s \$0_toobj;
#X obj 480 857 s \$0_toobj;
#X msg 504 786 norm none;
#X msg 504 714 melcalc slaney;
#X msg 504 830 melcalc htk;
#X text 791 757 unit: complex (real part = selected unit \, imag=0);
#X text 791 781 unit: magphase (magnitude);
#X text 791 805 unit: powerphase (power linear);
#X text 791 829 unit: dbphase (power in dB);
#X msg 504 808 melcalc calc2;
#X obj 131 366 noise~;
#X obj 185 488 specview 140 20;
#X obj 181 411 torch.melspectrogram~ -n_mels 140 -n_fft 2048 -hop 512 -win blackman -unit magphase -melcalc calc2, f 71;
#X connect 0 0 12 0;
#X connect 1 0 0 0;
#X connect 3 0 1 0;
#X connect 3 1 13 0;
#X connect 5 0 4 0;
#X connect 5 0 6 0;
#X connect 12 0 5 0;
#X connect 12 0 44 0;
#X connect 13 0 12 1;
#X connect 14 0 44 0;
#X connect 26 0 32 0;
#X connect 27 0 32 0;
#X connect 28 0 32 0;
#X connect 29 0 32 0;
#X connect 30 0 33 0;
#X connect 31 0 33 0;
#X connect 34 0 33 0;
#X connect 35 0 33 0;
#X connect 36 0 33 0;
#X connect 41 0 33 0;
#X connect 42 0 44 0;
#X connect 44 0 43 0;
