#N canvas 870 63 1018 671 12;
#X msg 250 284 out 64;
#X msg 255 338 bias \$1;
#X obj 255 316 tgl 19 0 empty empty empty 0 -10 0 12 #fcfcfc #000000 #000000 0 1;
#X obj 328 93 tgl 19 0 empty empty empty 0 -10 0 12 #fcfcfc #000000 #000000 0 1;
#X obj 129 118 bng 19 250 50 0 empty empty empty 0 -10 0 12 #fcfcfc #000000 #000000;
#X obj 129 142 samplerate~;
#X obj 129 200 * 4;
#X obj 328 43 loadbang;
#X msg 328 68 1;
#X floatatom 182 168 5 0 0 0 - - - 0;
#X obj 128 502 print~;
#X obj 140 474 bng 19 250 50 0 empty empty empty 0 -10 0 12 #fcfcfc #000000 #000000;
#X obj 129 224 osc~;
#X floatatom 186 213 5 0 0 0 - - - 0;
#X floatatom 46 190 5 0 0 0 - - - 0;
#X msg 244 255 device mps;
#X obj 328 118 switch~ 512 1 1;
#X obj 129 176 / 512;
#X text 337 399 creation arguments: output vector size (default: 64) \, device (default: mps), f 36;
#X text 326 254 set the device \, cpu \, cuda or mps (default: cpu);
#X text 314 285 set the output vector size (default: 64);
#X text 319 339 enable/disable bias vector (default: 1);
#X obj 128 401 torch.linear~ -ov 512 -d cpu;
#X connect 0 0 22 0;
#X connect 1 0 22 0;
#X connect 2 0 1 0;
#X connect 3 0 16 0;
#X connect 4 0 5 0;
#X connect 5 0 9 0;
#X connect 5 0 17 0;
#X connect 6 0 12 0;
#X connect 7 0 8 0;
#X connect 8 0 3 0;
#X connect 11 0 10 0;
#X connect 12 0 22 0;
#X connect 14 0 12 0;
#X connect 15 0 22 0;
#X connect 17 0 6 0;
#X connect 17 0 13 0;
#X connect 22 0 10 0;
